<svg xmlns="http://www.w3.org/2000/svg" xmlns:xlink="http://www.w3.org/1999/xlink" width="265" zoomAndPan="magnify" viewBox="0 0 198.75 30.000001" height="40" preserveAspectRatio="xMidYMid meet" version="1.0"><defs><g/><clipPath id="a3a0ad3188"><path d="M 3.085938 0 L 195.421875 0 L 195.421875 29.03125 L 3.085938 29.03125 Z M 3.085938 0 " clip-rule="nonzero"/></clipPath></defs><g clip-path="url(#a3a0ad3188)"><path fill="#ffffff" d="M 3.085938 0 L 195.664062 0 L 195.664062 29.070312 L 3.085938 29.070312 Z M 3.085938 0 " fill-opacity="1" fill-rule="nonzero"/><path fill="#151719" d="M 3.085938 0 L 195.664062 0 L 195.664062 29.070312 L 3.085938 29.070312 Z M 3.085938 0 " fill-opacity="1" fill-rule="nonzero"/></g><g fill="#2296f2" fill-opacity="1"><g transform="translate(3.084674, 25.993245)"><g><path d="M 14.421875 -23.1875 C 11.578125 -23.1875 9.363281 -22.273438 7.78125 -20.453125 C 6.207031 -18.628906 5.421875 -16.125 5.421875 -12.9375 C 5.421875 -9.800781 6.242188 -7.273438 7.890625 -5.359375 C 9.535156 -3.453125 11.757812 -2.5 14.5625 -2.5 C 18.15625 -2.5 20.851562 -4.273438 22.65625 -7.828125 L 25.5 -6.40625 C 24.445312 -4.195312 22.960938 -2.515625 21.046875 -1.359375 C 19.140625 -0.210938 16.925781 0.359375 14.40625 0.359375 C 11.8125 0.359375 9.570312 -0.175781 7.6875 -1.25 C 5.800781 -2.320312 4.363281 -3.851562 3.375 -5.84375 C 2.382812 -7.84375 1.890625 -10.207031 1.890625 -12.9375 C 1.890625 -17.03125 2.992188 -20.234375 5.203125 -22.546875 C 7.410156 -24.867188 10.46875 -26.03125 14.375 -26.03125 C 17.113281 -26.03125 19.394531 -25.492188 21.21875 -24.421875 C 23.050781 -23.359375 24.398438 -21.773438 25.265625 -19.671875 L 21.96875 -18.59375 C 21.375 -20.082031 20.414062 -21.21875 19.09375 -22 C 17.78125 -22.789062 16.222656 -23.1875 14.421875 -23.1875 Z M 14.421875 -23.1875 "/></g></g></g><g fill="#2296f2" fill-opacity="1"><g transform="translate(29.997765, 25.993245)"><g><path d="M 21.25 0 L 18.3125 -7.5 L 6.625 -7.5 L 3.671875 0 L 0.078125 0 L 10.546875 -25.65625 L 14.484375 -25.65625 L 24.796875 0 Z M 12.46875 -23.03125 L 12.3125 -22.515625 C 12 -21.503906 11.546875 -20.210938 10.953125 -18.640625 L 7.6875 -10.21875 L 17.28125 -10.21875 L 13.984375 -18.671875 C 13.640625 -19.515625 13.300781 -20.460938 12.96875 -21.515625 Z M 12.46875 -23.03125 "/></g></g></g><g fill="#2296f2" fill-opacity="1"><g transform="translate(54.854616, 25.993245)"><g><path d="M 21.1875 0 L 14.53125 -10.65625 L 6.53125 -10.65625 L 6.53125 0 L 3.0625 0 L 3.0625 -25.65625 L 15.125 -25.65625 C 18.007812 -25.65625 20.238281 -25.003906 21.8125 -23.703125 C 23.382812 -22.410156 24.171875 -20.613281 24.171875 -18.3125 C 24.171875 -16.40625 23.613281 -14.800781 22.5 -13.5 C 21.394531 -12.207031 19.863281 -11.390625 17.90625 -11.046875 L 25.1875 0 Z M 20.671875 -18.28125 C 20.671875 -19.769531 20.164062 -20.90625 19.15625 -21.6875 C 18.144531 -22.46875 16.6875 -22.859375 14.78125 -22.859375 L 6.53125 -22.859375 L 6.53125 -13.390625 L 14.921875 -13.390625 C 16.753906 -13.390625 18.171875 -13.816406 19.171875 -14.671875 C 20.171875 -15.535156 20.671875 -16.738281 20.671875 -18.28125 Z M 20.671875 -18.28125 "/></g></g></g><g fill="#ffffff" fill-opacity="1"><g transform="translate(81.77476, 25.993245)"><g><path d="M 23.15625 -7.078125 C 23.15625 -4.710938 22.226562 -2.878906 20.375 -1.578125 C 18.53125 -0.285156 15.925781 0.359375 12.5625 0.359375 C 6.3125 0.359375 2.6875 -1.8125 1.6875 -6.15625 L 5.0625 -6.828125 C 5.445312 -5.285156 6.269531 -4.148438 7.53125 -3.421875 C 8.789062 -2.703125 10.507812 -2.34375 12.6875 -2.34375 C 14.9375 -2.34375 16.671875 -2.726562 17.890625 -3.5 C 19.109375 -4.269531 19.71875 -5.40625 19.71875 -6.90625 C 19.71875 -7.738281 19.523438 -8.414062 19.140625 -8.9375 C 18.753906 -9.457031 18.21875 -9.882812 17.53125 -10.21875 C 16.84375 -10.5625 16.015625 -10.847656 15.046875 -11.078125 C 14.085938 -11.316406 13.03125 -11.566406 11.875 -11.828125 C 9.84375 -12.273438 8.300781 -12.722656 7.25 -13.171875 C 6.195312 -13.628906 5.367188 -14.132812 4.765625 -14.6875 C 4.160156 -15.238281 3.695312 -15.882812 3.375 -16.625 C 3.050781 -17.363281 2.890625 -18.210938 2.890625 -19.171875 C 2.890625 -21.367188 3.726562 -23.0625 5.40625 -24.25 C 7.09375 -25.4375 9.503906 -26.03125 12.640625 -26.03125 C 15.546875 -26.03125 17.769531 -25.582031 19.3125 -24.6875 C 20.851562 -23.800781 21.929688 -22.285156 22.546875 -20.140625 L 19.125 -19.53125 C 18.75 -20.894531 18.035156 -21.878906 16.984375 -22.484375 C 15.929688 -23.097656 14.46875 -23.40625 12.59375 -23.40625 C 10.539062 -23.40625 8.972656 -23.066406 7.890625 -22.390625 C 6.816406 -21.710938 6.28125 -20.695312 6.28125 -19.34375 C 6.28125 -18.5625 6.488281 -17.910156 6.90625 -17.390625 C 7.320312 -16.878906 7.925781 -16.441406 8.71875 -16.078125 C 9.507812 -15.722656 11.082031 -15.285156 13.4375 -14.765625 C 14.226562 -14.578125 15.015625 -14.390625 15.796875 -14.203125 C 16.578125 -14.015625 17.320312 -13.789062 18.03125 -13.53125 C 18.75 -13.269531 19.421875 -12.960938 20.046875 -12.609375 C 20.671875 -12.265625 21.210938 -11.835938 21.671875 -11.328125 C 22.140625 -10.816406 22.503906 -10.210938 22.765625 -9.515625 C 23.023438 -8.828125 23.15625 -8.015625 23.15625 -7.078125 Z M 23.15625 -7.078125 "/></g></g></g><g fill="#ffffff" fill-opacity="1"><g transform="translate(106.631611, 25.993245)"><g><path d="M 20.40625 0 L 20.40625 -11.890625 L 6.53125 -11.890625 L 6.53125 0 L 3.0625 0 L 3.0625 -25.65625 L 6.53125 -25.65625 L 6.53125 -14.796875 L 20.40625 -14.796875 L 20.40625 -25.65625 L 23.890625 -25.65625 L 23.890625 0 Z M 20.40625 0 "/></g></g></g><g fill="#ffffff" fill-opacity="1"><g transform="translate(133.544702, 25.993245)"><g><path d="M 3.4375 0 L 3.4375 -25.65625 L 6.921875 -25.65625 L 6.921875 0 Z M 3.4375 0 "/></g></g></g><g fill="#ffffff" fill-opacity="1"><g transform="translate(143.89869, 25.993245)"><g><path d="M 22.90625 -17.9375 C 22.90625 -15.507812 22.113281 -13.578125 20.53125 -12.140625 C 18.945312 -10.710938 16.796875 -10 14.078125 -10 L 6.53125 -10 L 6.53125 0 L 3.0625 0 L 3.0625 -25.65625 L 13.859375 -25.65625 C 16.734375 -25.65625 18.957031 -24.976562 20.53125 -23.625 C 22.113281 -22.28125 22.90625 -20.382812 22.90625 -17.9375 Z M 19.40625 -17.890625 C 19.40625 -21.203125 17.414062 -22.859375 13.4375 -22.859375 L 6.53125 -22.859375 L 6.53125 -12.75 L 13.578125 -12.75 C 17.460938 -12.75 19.40625 -14.460938 19.40625 -17.890625 Z M 19.40625 -17.890625 "/></g></g></g><g fill="#ffffff" fill-opacity="1"><g transform="translate(168.755541, 25.993245)"><g><path d="M 14.140625 -10.625 L 14.140625 0 L 10.6875 0 L 10.6875 -10.625 L 0.8125 -25.65625 L 4.640625 -25.65625 L 12.453125 -13.4375 L 20.21875 -25.65625 L 24.046875 -25.65625 Z M 14.140625 -10.625 "/></g></g></g></svg>